<svg width="170" height="44" viewBox="0 0 170 44" fill="none" xmlns="http://www.w3.org/2000/svg">
<path d="M58.0884 31.2686C59.2847 31.2686 59.9561 30.6582 60.3833 29.1689L60.9814 27.2891H67.0117L67.6099 29.2422C68.0005 30.6826 68.6719 31.2686 69.9658 31.2686C71.272 31.2686 72.2119 30.3774 72.2119 29.1201C72.2119 28.6562 72.1265 28.2412 71.9189 27.6675L67.5366 15.729C66.8652 13.8979 65.791 13.1167 63.9478 13.1167C62.2021 13.1167 61.1157 13.9346 60.4688 15.729L56.123 27.6675C55.9277 28.2046 55.8057 28.7539 55.8057 29.1323C55.8057 30.4629 56.6724 31.2686 58.0884 31.2686ZM61.8726 23.9077L63.8745 17.1206H63.9722L66.0352 23.9077H61.8726Z" fill="#1F2C33"/>
<path d="M76.6187 31.2808C78.0347 31.2808 78.8525 30.4263 78.8525 28.9492V24.8354H81.416L84.0283 29.5352C84.7852 30.9023 85.249 31.2808 86.3354 31.2808C87.6416 31.2808 88.5693 30.4263 88.5693 29.2422C88.5693 28.7173 88.4839 28.3511 88.0933 27.7041L85.9326 24.0298C87.7271 23.1265 88.6792 21.271 88.6792 19.1958C88.6792 15.5581 86.311 13.3853 81.9165 13.3853H76.6187C75.2026 13.3853 74.3726 14.2397 74.3726 15.729V28.9492C74.3726 30.4263 75.2026 31.2808 76.6187 31.2808ZM78.8525 21.7715V16.7666H81.4648C83.064 16.7666 84.1016 17.7798 84.1016 19.2812C84.1016 20.8071 83.125 21.7715 81.4771 21.7715H78.8525Z" fill="#1F2C33"/>
<path d="M97.2485 31.2686C98.6646 31.2686 99.4824 30.4263 99.4824 28.937V16.9985H102.583C103.767 16.9985 104.573 16.3394 104.573 15.1919C104.573 14.0444 103.792 13.3853 102.583 13.3853H91.9263C90.7056 13.3853 89.9243 14.0444 89.9243 15.1919C89.9243 16.3394 90.73 16.9985 91.9263 16.9985H95.0146V28.937C95.0146 30.4263 95.8325 31.2686 97.2485 31.2686Z" fill="#1F2C33"/>
<path d="M107.71 31.2197C108.369 31.2197 108.809 30.7681 108.809 30.0845V24.0298H113.02L116.548 30.5117C116.829 31.0366 117.122 31.2197 117.622 31.2197C118.257 31.2197 118.745 30.7803 118.745 30.2065C118.745 29.9624 118.684 29.7427 118.513 29.4375L115.291 23.688C117.5 22.9922 118.831 21.0879 118.831 18.6343C118.831 15.4604 116.609 13.3853 113.215 13.3853H107.71C107.039 13.3853 106.611 13.8247 106.611 14.5205V30.0845C106.611 30.7681 107.051 31.2197 107.71 31.2197ZM108.809 22.0889V15.3384H112.922C115.193 15.3384 116.56 16.5957 116.56 18.7075C116.56 20.8682 115.278 22.0889 113.02 22.0889H108.809Z" fill="#1F2C33"/>
<path d="M129.036 31.293C134.028 31.293 137.153 27.7896 137.153 22.1987C137.153 16.6079 134.028 13.0923 129.036 13.0923C124.043 13.0923 120.918 16.6079 120.918 22.1987C120.918 27.7896 124.043 31.293 129.036 31.293ZM129.036 29.2666C125.435 29.2666 123.176 26.5322 123.176 22.1987C123.176 17.853 125.435 15.1187 129.036 15.1187C132.637 15.1187 134.895 17.853 134.895 22.1987C134.895 26.5322 132.637 29.2666 129.036 29.2666Z" fill="#1F2C33"/>
<path d="M139.46 31.1709C140.01 31.1709 140.327 30.9146 140.535 30.3286L142.085 25.9585H149.055L150.618 30.3286C150.825 30.9146 151.143 31.1709 151.692 31.1709C152.327 31.1709 152.791 30.7681 152.791 30.2065C152.791 30.0479 152.754 29.8647 152.656 29.5962L146.98 14.2642C146.711 13.5439 146.272 13.2144 145.601 13.2144C144.88 13.2144 144.429 13.5562 144.16 14.2764L138.496 29.5962C138.398 29.8647 138.362 30.0479 138.362 30.2065C138.362 30.7681 138.826 31.1709 139.46 31.1709ZM142.72 24.0908L145.54 16.0586H145.613L148.433 24.0908H142.72Z" fill="#1F2C33"/>
<path d="M156.27 31H161.091C166.328 31 169.404 27.7407 169.404 22.1865C169.404 16.6445 166.316 13.3853 161.091 13.3853H156.27C155.598 13.3853 155.171 13.8247 155.171 14.5205V29.8647C155.171 30.5605 155.598 31 156.27 31ZM157.368 29.0225V15.3628H160.945C164.949 15.3628 167.158 17.8042 167.158 22.2109C167.158 26.5811 164.937 29.0225 160.945 29.0225H157.368Z" fill="#1F2C33"/>
<path d="M10.9997 32.2665L7.33301 30.2498V25.6665" stroke="#65D6AD" stroke-width="2.75" stroke-linecap="round" stroke-linejoin="round"/>
<path d="M7.33301 18.3334V13.7501L10.9997 11.7334" stroke="#27AB83" stroke-width="2.75" stroke-linecap="round" stroke-linejoin="round"/>
<path d="M18.333 7.51667L21.9997 5.5L25.6663 7.51667" stroke="#65D6AD" stroke-width="2.75" stroke-linecap="round" stroke-linejoin="round"/>
<path d="M33 11.7334L36.6667 13.7501V18.3334" stroke="#27AB83" stroke-width="2.75" stroke-linecap="round" stroke-linejoin="round"/>
<path d="M36.6667 25.6665V30.2498L33 32.3032" stroke="#65D6AD" stroke-width="2.75" stroke-linecap="round" stroke-linejoin="round"/>
<path d="M25.6663 36.4834L21.9997 38.5001L18.333 36.4834" stroke="#27AB83" stroke-width="2.75" stroke-linecap="round" stroke-linejoin="round"/>
<path d="M22 22.0001L25.6667 19.9834" stroke="#65D6AD" stroke-width="2.75" stroke-linecap="round" stroke-linejoin="round"/>
<path d="M33 15.7667L36.6667 13.75" stroke="#27AB83" stroke-width="2.75" stroke-linecap="round" stroke-linejoin="round"/>
<path d="M22 22V26.5833" stroke="#65D6AD" stroke-width="2.75" stroke-linecap="round" stroke-linejoin="round"/>
<path d="M22 33.9165V38.4998" stroke="#27AB83" stroke-width="2.75" stroke-linecap="round" stroke-linejoin="round"/>
<path d="M21.9997 22.0001L18.333 19.9468" stroke="#65D6AD" stroke-width="2.75" stroke-linecap="round" stroke-linejoin="round"/>
<path d="M10.9997 15.7667L7.33301 13.75" stroke="#27AB83" stroke-width="2.75" stroke-linecap="round" stroke-linejoin="round"/>
</svg>
